<svg width="550" height="230" xmlns="http://www.w3.org/2000/svg">
<g transform="translate(155,120)">
<path d="M375.5737041979535,-94.47590662725689L375.5737041979535,-50.7321663659573M375.5737041979535,-50.7321663659573L353.61663691228705,-46.732940194960236M375.5737041979535,-50.7321663659573L391.6185446544945,-45.25929934898533" style="fill:none;stroke:rgb(0,0,0);stroke-width:1;stroke-linecap:round"></path><path d="M391.6185446544946,-45.25929934898534L375.57370419795353,-50.732166365957305L375.57370419795353,-94.47590662725689z" style="fill:rgb(238,238,238); fill-opacity: 0.4"></path><path d="M375.5737041979535,-94.47590662725689L353.61663691228705,-90.47668045625983M375.5737041979535,-94.47590662725689L391.6185446544945,-89.00303961028492" style="fill:none;stroke:rgb(0,0,0);stroke-width:1;stroke-linecap:round"></path><path d="M375.57370419795353,-94.47590662725689L375.57370419795353,-50.732166365957305L353.61663691228705,-90.47668045625983zM375.57370419795353,-50.732166365957305L353.61663691228705,-46.73294019496023L353.61663691228705,-90.47668045625983z" style="fill:rgb(238,238,238); fill-opacity: 0.4"></path><path d="M353.61663691228705,-90.47668045625983L353.61663691228705,-46.732940194960236M353.61663691228705,-46.732940194960236L369.66147736882806,-41.26007317798827" style="fill:none;stroke:rgb(0,0,0);stroke-width:1;stroke-linecap:round"></path><path d="M369.66147736882806,-41.26007317798827L353.61663691228705,-46.73294019496023L375.57370419795353,-50.732166365957305zM391.6185446544946,-45.25929934898534L369.66147736882806,-41.26007317798827L375.57370419795353,-50.732166365957305z" style="fill:rgb(238,238,238); fill-opacity: 0.4"></path><path d="M369.66147736882806,-41.26007317798827L391.6185446544945,-45.25929934898533M391.6185446544945,-89.00303961028492L391.6185446544945,-45.25929934898533" style="fill:none;stroke:rgb(0,0,0);stroke-width:1;stroke-linecap:round"></path><path d="M391.6185446544946,-89.00303961028493L391.6185446544946,-45.25929934898534L375.57370419795353,-94.47590662725689zM391.6185446544946,-89.00303961028493L375.57370419795353,-94.47590662725689L353.61663691228705,-90.47668045625983z" style="fill:rgb(238,238,238); fill-opacity: 0.4"></path><path d="M353.61663691228705,-90.47668045625983L369.66147736882806,-85.00381343928787" style="fill:none;stroke:rgb(0,0,0);stroke-width:1;stroke-linecap:round"></path><path d="M353.61663691228705,-90.47668045625983L353.61663691228705,-46.73294019496023L369.66147736882806,-85.00381343928787zM369.66147736882806,-41.26007317798827L391.6185446544946,-45.25929934898534L391.6185446544946,-89.00303961028493z" style="fill:rgb(238,238,238); fill-opacity: 0.4"></path><path d="M369.66147736882806,-85.00381343928787L391.6185446544945,-89.00303961028492" style="fill:none;stroke:rgb(0,0,0);stroke-width:1;stroke-linecap:round"></path><path d="M353.61663691228705,-46.73294019496023L369.66147736882806,-41.26007317798827L369.66147736882806,-85.00381343928787zM369.66147736882806,-85.00381343928787L391.6185446544946,-89.00303961028493L353.61663691228705,-90.47668045625983z" style="fill:rgb(238,238,238); fill-opacity: 0.4"></path><path d="M369.66147736882806,-85.00381343928787L369.66147736882806,-41.26007317798827" style="fill:none;stroke:rgb(0,0,0);stroke-width:1;stroke-linecap:round"></path><path d="M369.66147736882806,-85.00381343928787L369.66147736882806,-41.26007317798827L391.6185446544946,-89.00303961028493z" style="fill:rgb(238,238,238); fill-opacity: 0.4"></path><path d="M325.709848251999,-71.15491015290812L334.21356209254645,-68.25430823506684L357.67938817091834,-65.14716885406405zM336.8413544533381,-54.08295085146338L329.96170517227273,-48.22517260575965L357.67938817091834,-65.14716885406405zM325.709848251999,-71.15491015290812L323.0820558912074,-58.77622352571153L329.96170517227273,-60.09871307418191zM323.0820558912074,-58.77622352571153L329.96170517227273,-48.22517260575965L329.96170517227273,-60.09871307418191zM334.21356209254645,-68.25430823506684L336.8413544533381,-54.08295085146338L357.67938817091834,-65.14716885406405z" style="fill:rgb(0,0,0)"></path><path d="M282.4456771745946,-51.44421745152681L329.96170517227273,-60.09871307418191" style="fill:none;stroke:rgb(0,0,0);stroke-width:1;stroke-linecap:round"></path><path d="M334.21356209254645,-68.25430823506684L325.709848251999,-71.15491015290812L329.96170517227273,-60.09871307418191zM329.96170517227273,-48.22517260575965L336.8413544533381,-54.08295085146338L329.96170517227273,-60.09871307418191zM336.8413544533381,-54.08295085146338L334.21356209254645,-68.25430823506684L329.96170517227273,-60.09871307418191z" style="fill:rgb(0,0,0)"></path><path d="M270.4635879766848,-112.29906303193003L270.4635879766848,5.380177038024414M270.4635879766848,5.380177038024414L248.50652069101838,9.379403209021477M270.4635879766848,5.380177038024414L286.5084284332258,10.85304405499639M248.50652069101838,-108.29983686093297L248.50652069101838,9.379403209021477M248.50652069101838,9.379403209021477L264.55136114755936,14.852270225993452" style="fill:none;stroke:rgb(0,0,0);stroke-width:1;stroke-linecap:round"></path><path d="M286.50842843322573,10.85304405499639L270.4635879766847,5.380177038024414L270.4635879766848,-112.29906303193005zM264.55136114755936,14.852270225993452L248.50652069101838,9.379403209021477L270.4635879766847,5.380177038024414zM286.50842843322573,10.85304405499639L264.55136114755936,14.852270225993452L270.4635879766847,5.380177038024414zM270.4635879766847,5.380177038024414L248.50652069101838,9.379403209021477L248.5065206910184,-108.29983686093298z" style="fill:rgb(238,238,238); fill-opacity: 0.4"></path><path d="M264.55136114755936,14.852270225993452L286.5084284332258,10.85304405499639M286.5084284332258,-106.82619601495806L286.5084284332258,10.85304405499639" style="fill:none;stroke:rgb(0,0,0);stroke-width:1;stroke-linecap:round"></path><path d="M270.4635879766848,-112.29906303193005L270.4635879766847,5.380177038024414L248.5065206910184,-108.29983686093298z" style="fill:rgb(238,238,238); fill-opacity: 0.4"></path><path d="M270.4635879766848,-112.29906303193003L248.50652069101838,-108.29983686093297M270.4635879766848,-112.29906303193003L286.5084284332258,-106.82619601495806" style="fill:none;stroke:rgb(0,0,0);stroke-width:1;stroke-linecap:round"></path><path d="M286.5084284332258,-106.82619601495807L286.50842843322573,10.85304405499639L270.4635879766848,-112.29906303193005zM264.55136114755936,14.852270225993452L286.50842843322573,10.85304405499639L286.5084284332258,-106.82619601495807z" style="fill:rgb(238,238,238); fill-opacity: 0.4"></path><path d="M264.55136114755936,-102.826969843961L264.55136114755936,14.852270225993452" style="fill:none;stroke:rgb(0,0,0);stroke-width:1;stroke-linecap:round"></path><path d="M248.50652069101838,9.379403209021477L264.55136114755936,14.852270225993452L264.5513611475594,-102.826969843961zM286.5084284332258,-106.82619601495807L270.4635879766848,-112.29906303193005L248.5065206910184,-108.29983686093298zM248.5065206910184,-108.29983686093298L248.50652069101838,9.379403209021477L264.5513611475594,-102.826969843961z" style="fill:rgb(238,238,238); fill-opacity: 0.4"></path><path d="M248.50652069101838,-108.29983686093297L264.55136114755936,-102.826969843961M264.55136114755936,-102.826969843961L286.5084284332258,-106.82619601495806" style="fill:none;stroke:rgb(0,0,0);stroke-width:1;stroke-linecap:round"></path><path d="M264.5513611475594,-102.826969843961L264.55136114755936,14.852270225993452L286.5084284332258,-106.82619601495807zM264.5513611475594,-102.826969843961L286.5084284332258,-106.82619601495807L248.5065206910184,-108.29983686093298z" style="fill:rgb(238,238,238); fill-opacity: 0.4"></path><path d="M220.59973203073028,-52.010316653253824L229.10344587127776,-49.109714735412545L252.5692719496496,-46.00257535440976zM231.7312382320694,-34.93835735180909L224.851588951004,-29.08057910610537L252.5692719496496,-46.00257535440976zM220.59973203073028,-52.010316653253824L217.97193966993865,-39.631630026057245L224.851588951004,-40.95411957452762zM217.97193966993865,-39.631630026057245L224.851588951004,-29.08057910610537L224.851588951004,-40.95411957452762zM229.10344587127776,-49.109714735412545L231.7312382320694,-34.93835735180909L252.5692719496496,-46.00257535440976z" style="fill:rgb(0,0,0)"></path><path d="M177.33556095332585,-32.29962395187252L224.851588951004,-40.95411957452762" style="fill:none;stroke:rgb(0,0,0);stroke-width:1;stroke-linecap:round"></path><path d="M229.10344587127776,-49.109714735412545L220.59973203073028,-52.010316653253824L224.851588951004,-40.95411957452762zM224.851588951004,-29.08057910610537L231.7312382320694,-34.93835735180909L224.851588951004,-40.95411957452762z" style="fill:rgb(0,0,0)"></path><path d="M139.87557836850448,-74.22869044084618L139.87557836850448,-0.29319516158755327M139.87557836850448,-0.29319516158755327L92.42714497064223,8.348988885524028M139.87557836850448,-0.29319516158755327L184.91913884981795,15.071084536479816" style="fill:none;stroke:rgb(0,0,0);stroke-width:1;stroke-linecap:round"></path><path d="M231.7312382320694,-34.93835735180909L229.10344587127776,-49.109714735412545L224.851588951004,-40.95411957452762z" style="fill:rgb(0,0,0)"></path><path d="M139.87557836850448,-74.22869044084618L92.42714497064223,-65.5865063937346M139.87557836850448,-74.22869044084618L184.91913884981795,-58.86441074277881" style="fill:none;stroke:rgb(0,0,0);stroke-width:1;stroke-linecap:round"></path><path d="M139.87557836850448,-74.2286904408462L139.87557836850448,-0.2931951615875567L92.42714497064225,-65.5865063937346zM184.91913884981795,15.07108453647981L139.87557836850448,-0.2931951615875567L139.87557836850448,-74.2286904408462zM139.87557836850448,-0.2931951615875567L92.42714497064225,8.348988885524028L92.42714497064225,-65.5865063937346z" style="fill:rgb(238,238,238); fill-opacity: 0.4"></path><path d="M92.42714497064223,-65.5865063937346L92.42714497064223,8.348988885524028M92.42714497064223,8.348988885524028L137.47070545195567,23.713268583591393" style="fill:none;stroke:rgb(0,0,0);stroke-width:1;stroke-linecap:round"></path><path d="M137.47070545195567,23.713268583591393L92.42714497064225,8.348988885524028L139.87557836850448,-0.2931951615875567zM184.91913884981795,-58.86441074277882L139.87557836850448,-74.2286904408462L92.42714497064225,-65.5865063937346zM184.91913884981795,15.07108453647981L137.47070545195567,23.713268583591393L139.87557836850448,-0.2931951615875567zM184.91913884981795,-58.86441074277882L184.91913884981795,15.07108453647981L139.87557836850448,-74.2286904408462z" style="fill:rgb(238,238,238); fill-opacity: 0.4"></path><path d="M92.42714497064223,-65.5865063937346L137.47070545195567,-50.22222669566723M7.0344058154515885,-45.73427150583589L100.27492143146104,-43.455335811205416M7.0344058154515885,-31.486021811380144L100.27492143146104,-43.455335811205416M15.714836580756147,-28.52514205958573L100.27492143146104,-43.455335811205416M15.714836580756147,-42.77339175404148L100.27492143146104,-43.455335811205416M137.47070545195567,23.713268583591393L184.91913884981795,15.071084536479816M184.91913884981795,-58.86441074277881L184.91913884981795,15.071084536479816" style="fill:none;stroke:rgb(0,0,0);stroke-width:1;stroke-linecap:round"></path><path d="M92.42714497064225,-65.5865063937346L92.42714497064225,8.348988885524028L137.47070545195567,-50.22222669566723z" style="fill:rgb(238,238,238); fill-opacity: 0.4"></path><path d="M0.4531580864916341,-67.92882895848602L0.4531580864916341,34.964432628245454M0.4531580864916341,34.964432628245454L-25.038208025704204,39.60739050435997M0.4531580864916341,34.964432628245454L63.13859535712996,56.346325643148155" style="fill:none;stroke:rgb(0,0,0);stroke-width:1;stroke-linecap:round"></path><path d="M137.47070545195567,23.713268583591393L184.91913884981795,15.07108453647981L184.91913884981795,-58.86441074277882z" style="fill:rgb(238,238,238); fill-opacity: 0.4"></path><path d="M137.47070545195567,-50.22222669566723L184.91913884981795,-58.86441074277881" style="fill:none;stroke:rgb(0,0,0);stroke-width:1;stroke-linecap:round"></path><path d="M92.42714497064225,8.348988885524028L137.47070545195567,23.713268583591393L137.47070545195567,-50.22222669566723zM137.47070545195567,-50.22222669566723L184.91913884981795,-58.86441074277882L92.42714497064225,-65.5865063937346z" style="fill:rgb(238,238,238); fill-opacity: 0.4"></path><path d="M7.034406390197098,-31.48602158535752L7.034406390197098,-45.734270147464215L100.2749256680603,-43.455336243399785zM15.714835775784561,-28.525142304182186L7.034406390197098,-31.48602158535752L100.2749256680603,-43.455336243399785z" style="fill:rgb(255,187,187); fill-opacity: 0.4"></path><path d="M137.47070545195567,-50.22222669566723L137.47070545195567,23.713268583591393" style="fill:none;stroke:rgb(0,0,0);stroke-width:1;stroke-linecap:round"></path><path d="M7.034406390197098,-45.734270147464215L15.714835775784561,-42.77339086628888L100.2749256680603,-43.455336243399785z" style="fill:rgb(255,187,187); fill-opacity: 0.4"></path><path d="M137.47070545195567,-50.22222669566723L137.47070545195567,23.713268583591393L184.91913884981795,-58.86441074277882z" style="fill:rgb(238,238,238); fill-opacity: 0.4"></path><path d="M-25.038208025704204,-63.28587108237149L-25.038208025704204,39.60739050435997M-25.038208025704204,39.60739050435997L37.647229244934124,60.989283519262685" style="fill:none;stroke:rgb(0,0,0);stroke-width:1;stroke-linecap:round"></path><path d="M15.714835775784561,-42.77339086628888L15.714835775784561,-28.525142304182186L100.2749256680603,-43.455336243399785z" style="fill:rgb(255,187,187); fill-opacity: 0.4"></path><path d="M0.45315808649163275,34.964432628245454L-25.0382080257042,39.60739050435998L-25.0382080257042,-63.2858710823715zM0.45315808649163275,-67.92882895848602L0.45315808649163275,34.964432628245454L-25.0382080257042,-63.2858710823715z" style="fill:rgb(238,238,238); fill-opacity: 0.4"></path><path d="M7.0344058154515885,-45.73427150583589L7.0344058154515885,-31.486021811380144M7.0344058154515885,-31.486021811380144L15.714836580756147,-28.52514205958573M7.034406628337789,-45.73427019083879L7.034406628337789,-31.4860216287321M7.034406628337789,-31.4860216287321L-18.456959483858046,-26.84306375261758M7.034406628337789,-31.4860216287321L15.714836013925254,-28.525142347556766M0.4531580864916341,-67.92882895848602L-25.038208025704204,-63.28587108237149M0.4531580864916341,-67.92882895848602L63.13859535712996,-46.54693594358329M7.0344058154515885,-45.73427150583589L15.714836580756147,-42.77339175404148M7.034406628337789,-45.73427019083879L-18.456959483858046,-41.09131231472428M7.034406628337789,-45.73427019083879L15.714836013925254,-42.773390909663455" style="fill:none;stroke:rgb(0,0,0);stroke-width:1;stroke-linecap:round"></path><path d="M15.71483601392525,-28.525142347556766L7.034406628337789,-31.4860216287321L7.034406628337789,-45.73427019083879z" style="fill:rgb(153,221,255); fill-opacity: 0.4"></path><path d="M7.034406390197098,-45.734270147464215L7.034406390197098,-31.48602158535752L15.714835775784561,-28.525142304182186z" style="fill:rgb(255,187,187); fill-opacity: 0.4"></path><path d="M7.034406628337789,-45.73427019083879L7.034406628337789,-31.4860216287321L-18.456959483858043,-41.09131231472428zM15.71483601392525,-42.77339090966346L15.71483601392525,-28.525142347556766L7.034406628337789,-45.73427019083879z" style="fill:rgb(153,221,255); fill-opacity: 0.4"></path><path d="M7.034406390197098,-45.734270147464215L15.714835775784561,-28.525142304182186L15.714835775784561,-42.77339086628888z" style="fill:rgb(255,187,187); fill-opacity: 0.4"></path><path d="M63.13859535712996,56.34632564314816L0.45315808649163275,34.964432628245454L0.45315808649163275,-67.92882895848602z" style="fill:rgb(238,238,238); fill-opacity: 0.4"></path><path d="M-9.776530098270582,-23.882184471442248L15.714836013925254,-28.525142347556766M15.714836013925254,-42.773390909663455L15.714836013925254,-28.525142347556766M15.714836580756147,-28.52514205958573L15.714836580756147,-42.77339175404148" style="fill:none;stroke:rgb(0,0,0);stroke-width:1;stroke-linecap:round"></path><path d="M7.034406628337789,-31.4860216287321L-18.456959483858043,-26.84306375261758L-18.456959483858043,-41.09131231472428z" style="fill:rgb(153,221,255); fill-opacity: 0.4"></path><path d="M37.647229244934124,60.98928351926268L-25.0382080257042,39.60739050435998L0.45315808649163275,34.964432628245454z" style="fill:rgb(238,238,238); fill-opacity: 0.4"></path><path d="M15.71483601392525,-42.77339090966346L7.034406628337789,-45.73427019083879L-18.456959483858043,-41.09131231472428zM15.71483601392525,-28.525142347556766L-9.776530098270582,-23.882184471442248L7.034406628337789,-31.4860216287321z" style="fill:rgb(153,221,255); fill-opacity: 0.4"></path><path d="M-9.776530098270582,-38.13043303354895L15.714836013925254,-42.773390909663455" style="fill:none;stroke:rgb(0,0,0);stroke-width:1;stroke-linecap:round"></path><path d="M-9.776530098270582,-23.882184471442248L-18.456959483858043,-26.84306375261758L7.034406628337789,-31.4860216287321z" style="fill:rgb(153,221,255); fill-opacity: 0.4"></path><path d="M-18.456959483858046,-41.09131231472428L-18.456959483858046,-26.84306375261758M-18.456959483858046,-26.84306375261758L-9.776530098270582,-23.882184471442248M-25.038208025704204,-63.28587108237149L37.647229244934124,-41.903978067468785" style="fill:none;stroke:rgb(0,0,0);stroke-width:1;stroke-linecap:round"></path><path d="M-9.776530098270582,-23.882184471442248L15.71483601392525,-28.525142347556766L15.71483601392525,-42.77339090966346z" style="fill:rgb(153,221,255); fill-opacity: 0.4"></path><path d="M-18.456959483858046,-41.09131231472428L-9.776530098270582,-38.13043303354895" style="fill:none;stroke:rgb(0,0,0);stroke-width:1;stroke-linecap:round"></path><path d="M-9.776530098270582,-38.13043303354895L15.71483601392525,-42.77339090966346L-18.456959483858043,-41.09131231472428zM-18.456959483858043,-41.09131231472428L-18.456959483858043,-26.84306375261758L-9.776530098270582,-38.13043303354895zM-9.776530098270582,-38.13043303354895L-9.776530098270582,-23.882184471442248L15.71483601392525,-42.77339090966346zM-18.456959483858043,-26.84306375261758L-9.776530098270582,-23.882184471442248L-9.776530098270582,-38.13043303354895z" style="fill:rgb(153,221,255); fill-opacity: 0.4"></path><path d="M-9.776530098270582,-38.13043303354895L-9.776530098270582,-23.882184471442248" style="fill:none;stroke:rgb(0,0,0);stroke-width:1;stroke-linecap:round"></path><path d="M63.13859535712996,-46.54693594358329L0.45315808649163275,-67.92882895848602L-25.0382080257042,-63.2858710823715z" style="fill:rgb(238,238,238); fill-opacity: 0.4"></path><path d="M-98.38254231750109,-30.239804576980312L-7.130343431349615,-28.99060353309547M-98.38254231750109,-15.991556014873616L-7.130343431349615,-28.99060353309547M-89.70211293191362,-13.030676733698288L-7.130343431349615,-28.99060353309547M-89.70211293191362,-27.27892529580498L-7.130343431349615,-28.99060353309547" style="fill:none;stroke:rgb(0,0,0);stroke-width:1;stroke-linecap:round"></path><path d="M63.13859535712996,56.34632564314816L37.647229244934124,60.98928351926268L0.45315808649163275,34.964432628245454z" style="fill:rgb(238,238,238); fill-opacity: 0.4"></path><path d="M-116.96063913246067,-65.52598302885173L-116.96063913246067,66.15579491620878M-116.96063913246067,66.15579491620878L-134.36120353558874,69.32510672118454M-116.96063913246067,66.15579491620878L-36.736436849755776,93.52013000106864" style="fill:none;stroke:rgb(0,0,0);stroke-width:1;stroke-linecap:round"></path><path d="M-25.0382080257042,-63.2858710823715L-25.0382080257042,39.60739050435998L37.647229244934124,-41.90397806746878zM63.13859535712996,-46.54693594358329L63.13859535712996,56.34632564314816L0.45315808649163275,-67.92882895848602z" style="fill:rgb(238,238,238); fill-opacity: 0.4"></path><path d="M-134.36120353558874,-62.35667122387597L-134.36120353558874,69.32510672118454M-134.36120353558874,69.32510672118454L-54.137001252883856,96.68944180604439" style="fill:none;stroke:rgb(0,0,0);stroke-width:1;stroke-linecap:round"></path><path d="M-116.96063913246067,66.15579491620876L-134.36120353558871,69.32510672118453L-134.36120353558871,-62.35667122387597zM-25.0382080257042,39.60739050435998L37.647229244934124,60.98928351926268L37.647229244934124,-41.90397806746878z" style="fill:rgb(238,238,238); fill-opacity: 0.4"></path><path d="M37.647229244934124,60.989283519262685L63.13859535712996,56.346325643148155M63.13859535712996,-46.54693594358329L63.13859535712996,56.346325643148155" style="fill:none;stroke:rgb(0,0,0);stroke-width:1;stroke-linecap:round"></path><path d="M-116.96063913246067,-65.52598302885174L-116.96063913246067,66.15579491620876L-134.36120353558871,-62.35667122387597zM37.647229244934124,-41.90397806746878L63.13859535712996,-46.54693594358329L-25.0382080257042,-63.2858710823715z" style="fill:rgb(238,238,238); fill-opacity: 0.4"></path><path d="M-98.3825460220027,-15.991555225242736L-98.3825460220027,-30.239803787349427L-7.130342928603494,-28.990603834081266z" style="fill:rgb(255,187,187); fill-opacity: 0.4"></path><path d="M-116.96063913246067,-65.52598302885173L-134.36120353558874,-62.35667122387597M-116.96063913246067,-65.52598302885173L-36.736436849755776,-38.16164794399186" style="fill:none;stroke:rgb(0,0,0);stroke-width:1;stroke-linecap:round"></path><path d="M-89.70211663641521,-13.030675944067404L-98.3825460220027,-15.991555225242736L-7.130342928603494,-28.990603834081266z" style="fill:rgb(255,187,187); fill-opacity: 0.4"></path><path d="M37.647229244934124,60.98928351926268L63.13859535712996,56.34632564314816L63.13859535712996,-46.54693594358329z" style="fill:rgb(238,238,238); fill-opacity: 0.4"></path><path d="M-98.3825460220027,-30.239803787349427L-89.70211663641521,-27.278924506174096L-7.130342928603494,-28.990603834081266z" style="fill:rgb(255,187,187); fill-opacity: 0.4"></path><path d="M37.647229244934124,-41.903978067468785L37.647229244934124,60.989283519262685" style="fill:none;stroke:rgb(0,0,0);stroke-width:1;stroke-linecap:round"></path><path d="M-89.70211663641521,-27.278924506174096L-89.70211663641521,-13.030675944067404L-7.130342928603494,-28.990603834081266z" style="fill:rgb(255,187,187); fill-opacity: 0.4"></path><path d="M-54.137001252883856,96.68944180604439L-134.36120353558871,69.32510672118453L-116.96063913246067,66.15579491620876z" style="fill:rgb(238,238,238); fill-opacity: 0.4"></path><path d="M-134.36120353558874,-62.35667122387597L-54.137001252883856,-34.9923361390161" style="fill:none;stroke:rgb(0,0,0);stroke-width:1;stroke-linecap:round"></path><path d="M-36.73643684975578,93.52013000106862L-116.96063913246067,66.15579491620876L-116.96063913246067,-65.52598302885174z" style="fill:rgb(238,238,238); fill-opacity: 0.4"></path><path d="M-98.38254231750109,-30.239804576980312L-98.38254231750109,-15.991556014873616M-98.38254231750109,-15.991556014873616L-89.70211293191362,-13.030676733698288M-98.38254586492984,-30.23980381595843L-98.38254586492984,-15.99155525385174M-98.38254586492984,-15.99155525385174L-115.78311026805791,-12.822243448875977M-98.38254586492984,-15.99155525385174L-89.70211647934238,-13.030675972676407M37.647229244934124,-41.903978067468785L63.13859535712996,-46.54693594358329M-98.38254231750109,-30.239804576980312L-89.70211293191362,-27.27892529580498M-98.38254586492984,-30.23980381595843L-115.78311026805791,-27.070492010982672M-98.38254586492984,-30.23980381595843L-89.70211647934238,-27.2789245347831" style="fill:none;stroke:rgb(0,0,0);stroke-width:1;stroke-linecap:round"></path><path d="M37.647229244934124,-41.90397806746878L37.647229244934124,60.98928351926268L63.13859535712996,-46.54693594358329z" style="fill:rgb(238,238,238); fill-opacity: 0.4"></path><path d="M-89.70211647934238,-13.030675972676411L-98.38254586492984,-15.991555253851743L-98.38254586492984,-30.23980381595843z" style="fill:rgb(153,221,255); fill-opacity: 0.4"></path><path d="M-98.3825460220027,-30.239803787349427L-98.3825460220027,-15.991555225242736L-89.70211663641521,-13.030675944067404z" style="fill:rgb(255,187,187); fill-opacity: 0.4"></path><path d="M-98.38254586492984,-30.23980381595843L-98.38254586492984,-15.991555253851743L-115.78311026805791,-27.07049201098267zM-98.38254586492984,-15.991555253851743L-115.78311026805791,-12.822243448875977L-115.78311026805791,-27.07049201098267zM-89.70211647934238,-27.2789245347831L-89.70211647934238,-13.030675972676411L-98.38254586492984,-30.23980381595843z" style="fill:rgb(153,221,255); fill-opacity: 0.4"></path><path d="M-98.3825460220027,-30.239803787349427L-89.70211663641521,-13.030675944067404L-89.70211663641521,-27.278924506174096z" style="fill:rgb(255,187,187); fill-opacity: 0.4"></path><path d="M-89.70211293191362,-13.030676733698288L-89.70211293191362,-27.27892529580498M-107.10268088247045,-9.861364167700646L-89.70211647934238,-13.030675972676407M-89.70211647934238,-27.2789245347831L-89.70211647934238,-13.030675972676407" style="fill:none;stroke:rgb(0,0,0);stroke-width:1;stroke-linecap:round"></path><path d="M-89.70211647934238,-27.2789245347831L-98.38254586492984,-30.23980381595843L-115.78311026805791,-27.07049201098267zM-89.70211647934238,-13.030675972676411L-107.10268088247045,-9.861364167700646L-98.38254586492984,-15.991555253851743zM-107.10268088247045,-9.861364167700646L-115.78311026805791,-12.822243448875977L-98.38254586492984,-15.991555253851743z" style="fill:rgb(153,221,255); fill-opacity: 0.4"></path><path d="M-115.78311026805791,-27.070492010982672L-115.78311026805791,-12.822243448875977M-115.78311026805791,-12.822243448875977L-107.10268088247045,-9.861364167700646M-107.10268088247045,-24.10961272980734L-89.70211647934238,-27.2789245347831M-115.78311026805791,-27.070492010982672L-107.10268088247045,-24.10961272980734" style="fill:none;stroke:rgb(0,0,0);stroke-width:1;stroke-linecap:round"></path><path d="M-107.10268088247045,-9.861364167700646L-89.70211647934238,-13.030675972676411L-89.70211647934238,-27.2789245347831zM-115.78311026805791,-27.07049201098267L-115.78311026805791,-12.822243448875977L-107.10268088247045,-24.109612729807335zM-107.10268088247045,-24.109612729807335L-89.70211647934238,-27.2789245347831L-115.78311026805791,-27.07049201098267zM-115.78311026805791,-12.822243448875977L-107.10268088247045,-9.861364167700646L-107.10268088247045,-24.109612729807335zM-107.10268088247045,-24.109612729807335L-107.10268088247045,-9.861364167700646L-89.70211647934238,-27.2789245347831z" style="fill:rgb(153,221,255); fill-opacity: 0.4"></path><path d="M-134.36120353558871,-62.35667122387597L-134.36120353558871,69.32510672118453L-54.137001252883856,-34.9923361390161z" style="fill:rgb(238,238,238); fill-opacity: 0.4"></path><path d="M-107.10268088247045,-24.10961272980734L-107.10268088247045,-9.861364167700646" style="fill:none;stroke:rgb(0,0,0);stroke-width:1;stroke-linecap:round"></path><path d="M-36.73643684975578,-38.161647943991866L-116.96063913246067,-65.52598302885174L-134.36120353558871,-62.35667122387597zM-36.73643684975578,93.52013000106862L-54.137001252883856,96.68944180604439L-116.96063913246067,66.15579491620876zM-36.73643684975578,-38.161647943991866L-36.73643684975578,93.52013000106862L-116.96063913246067,-65.52598302885174zM-134.36120353558871,69.32510672118453L-54.137001252883856,96.68944180604439L-54.137001252883856,-34.9923361390161z" style="fill:rgb(238,238,238); fill-opacity: 0.4"></path><path d="M-54.137001252883856,96.68944180604439L-36.736436849755776,93.52013000106864M-36.736436849755776,-38.16164794399186L-36.736436849755776,93.52013000106864" style="fill:none;stroke:rgb(0,0,0);stroke-width:1;stroke-linecap:round"></path><path d="M-54.137001252883856,-34.9923361390161L-36.73643684975578,-38.161647943991866L-134.36120353558871,-62.35667122387597z" style="fill:rgb(238,238,238); fill-opacity: 0.4"></path><path d="M-54.137001252883856,-34.9923361390161L-54.137001252883856,96.68944180604439" style="fill:none;stroke:rgb(0,0,0);stroke-width:1;stroke-linecap:round"></path><path d="M-54.137001252883856,96.68944180604439L-36.73643684975578,93.52013000106862L-36.73643684975578,-38.161647943991866zM-54.137001252883856,-34.9923361390161L-54.137001252883856,96.68944180604439L-36.73643684975578,-38.161647943991866z" style="fill:rgb(238,238,238); fill-opacity: 0.4"></path><path d="M-54.137001252883856,-34.9923361390161L-36.736436849755776,-38.16164794399186" style="fill:none;stroke:rgb(0,0,0);stroke-width:1;stroke-linecap:round"></path>
</g>
<g text-anchor="middle">
 <text x="10" y="100">28</text>
 <text x="70" y="60">28</text>
 <text x="110" y="230">1</text>
 <text x="45" y="125">3x3</text>
 <text x="118" y="75">13</text>
 <text x="180" y="55">13</text>
 <text x="205" y="195">5</text>
 <text x="145" y="110">3x3</text>
 <text x="240" y="100">6</text>
 <text x="320" y="50">6</text>
 <text x="320" y="155">10</text>
 <text x="388" y="50">360</text>
 <text x="498" y="45">10</text>
</g>
</svg>
